<svg xmlns="http://www.w3.org/2000/svg" viewBox="0 0 32 32" fill="none">
  <rect width="32" height="32" rx="6" fill="url(#g)"/>
  <path d="M9 7.5h9.172a2 2 0 0 1 1.414.586l4.828 4.828a2 2 0 0 1 .586 1.414V24.5a1 1 0 0 1-1 1H9a1 1 0 0 1-1-1V8.5a1 1 0 0 1 1-1z" fill="#fff"/>
  <path d="M18.172 7.5v4.828h4.828" stroke="#DBEAFE" stroke-width="2" stroke-linecap="round" stroke-linejoin="round"/>
  <rect x="9" y="15" width="9" height="2" rx="1" fill="#60A5FA"/>
  <rect x="9" y="19" width="14" height="2" rx="1" fill="#60A5FA"/>
  <rect x="9" y="23" width="7" height="2" rx="1" fill="#60A5FA"/>
  <defs>
    <linearGradient id="g" x1="0" y1="0" x2="32" y2="32" gradientUnits="userSpaceOnUse">
      <stop stop-color="#2563EB"/>
      <stop offset="1" stop-color="#7C3AED"/>
    </linearGradient>
  </defs>
</svg>